/* XPM */
static char *fishymail[] = {
/* columns rows colors chars-per-pixel */
"48 48 73 1 ",
"  c None",
". c black",
"X c #330000",
"o c #003300",
"O c #333300",
"+ c #000033",
"@ c #330033",
"# c gray20",
"$ c #660000",
"% c #663300",
"& c #660033",
"* c #663333",
"= c #336600",
"- c #336633",
"; c #666600",
": c #666633",
"> c #663366",
", c #336666",
"< c gray40",
"1 c #993300",
"2 c #993333",
"3 c #CC3333",
"4 c #996600",
"5 c #996633",
"6 c #CC6600",
"7 c #CC6633",
"8 c #339900",
"9 c #009933",
"0 c #339933",
"q c #669900",
"w c #669933",
"e c #33CC00",
"r c #00CC33",
"t c #33CC33",
"y c #66CC00",
"u c #66CC33",
"i c #009966",
"p c #339966",
"a c #669966",
"s c #00CC66",
"d c #33CC66",
"f c #66CC66",
"g c #999966",
"h c #CC9966",
"j c #99CC66",
"k c #CCCC66",
"l c #336699",
"z c #666699",
"x c #339999",
"c c #669999",
"v c #33CC99",
"b c #66CC99",
"n c #3399CC",
"m c #6699CC",
"M c #6699FF",
"N c #33CCCC",
"B c #66CCCC",
"V c #66FFCC",
"C c #66CCFF",
"Z c #66FFFF",
"A c gray60",
"S c #99CC99",
"D c #CCCC99",
"F c #FFCC99",
"G c #CCFF99",
"H c #FFFF99",
"J c #99CCCC",
"K c #99CCFF",
"L c #99FFFF",
"P c gray80",
"I c #FFCCCC",
"U c #CCFFCC",
"Y c #FFFFCC",
/* pixels */
"                   xccn                         ",
"              BBBBnBBCxcxxxm                    ",
"           BCJCBCxmBnBcmcxcxmxc                 ",
"          ZJBCBMBmBNmcxcNcncvmxc                ",
"        BBKBCJCBnBcmnbncxmcmcxmccc              ",
"       CZKBCBCBNBmxmxcxmncvcncvnncn             ",
"      KBKBCBKBmm09tptpt0tp0scxmccvcmc           ",
"     CZLBcafBNBx0d9cN09mxcn0tprcncnxx           ",
"    CJCBxadapmmfpa0t0ifcnfadcxm0t0txlb          ",
"   CCCBcd0pt0txmfpfp0ti0t000xw009mxlxx,         ",
"   BJa0i0t0pd0090dawtaafn000w80;00lxzlxl        ",
"  ZLnr0tp9pt00daf0wtaada00q08w0000axxlpl        ",
" BKBa0d0twtw8t0w8uw80aaxt0pw0-q=w80;lllx<       ",
" KCCat9p900twwewua0w0fxxnad0w8008w0xx,x,l       ",
" BCJdp0tptp9tp0r00y00xmxxxd000;00l,ll,llp       ",
" KBCaBNfax0d09d0pt00nxxxncxc0q0llplx,xlpll      ",
"BBKbpBmcnbIGFHDGFGIGFHIGcnl,lplpFHFGHDHGFHFGFD  ",
"CCBpaaBNB3GFUGYFUHGFUHGIFDgxl,YYDHUFDHGFPGGIGG@ ",
"CJCfadaBm5FHFDFGFGIHDDFGFSDgzYHFYDFHPHPHFGIHFG@O",
"VCBapapc57GIG<:<*<*GHIGYFDAg:YIUGFGYGFGHUFGDGFO#",
"CJCfafaO77DGFHFGFHFGIGFGFSgg>HYFIGI:*<*<*HIGIG@O",
"BBNadaxX57GIGPGIGYGIDHGIDDAg-YYYGHGFUHGFUHGFGHO@",
"BmmBadc$76IHF:<*F:<:<G>HFDgg*HYDFGIGFDIHDGIHID@O",
"BBNBpanX72GHGIDHUFGIGFHGFSAg:YYY:<*:GIGHGIGFGGO#",
"mNmBcbcO77DGI::<D<::I:PHDDgg*HIHDFYDFHDHIHDGIH@X",
"mBnBnCx@47GIGHUFGFGIGHDGFDgg<YHIUHD<:<:>:*YFGDO@",
"BBmBBmcX77FHD<*:<<F:<D:<FSgg*HYGFGFHDDFGFGDHIG&O",
" BnCxcN$57GFUFGYGFHPFYDYFDgA-YYIUFU*<:<:<:<FGGO#",
" nBcxmcX74IGF<::I:<::F::PDgg*HYHFGFGFHFDFHDGID&O",
" BxmNcxX77GIHDIFGIDFIGUFFDgA:YHYDHU:>:UF<*<FHGO@",
"  cccncO75FHD<::>::<:*FGIjhg*YIGIGFHFGFGFGFGIG@O",
"  xnxcx@63GIGFPHGIGFUFUHDDAg-YHYGFUDUFUHUFUFGHX#",
"   cmxpX75FGF<:*IG:<:HFGIDgg*HYFIHFGFHDFDHFGIG@O",
"    x,xX77GFUHGIGHDFGFUFDDgA:YYUG*<:<*<:<:<HDGO@",
"    cxlX74IHDFPHFGIHPGFHFSgg*HYFF<F:*GFHDD:FYD&O",
"     xxX77GHUFGHGIDHGIHPFDgA-YHYU:D<:I:>GI:YDGO#",
"      x$57FDFHP:>::<*H*:PDgg*YYDF:IGFG:<FH*GFG&X",
"       X67UFUHGIGHUFDUGYFkAg:YHYG<GFUHPFGG<FUHo@",
"       X75FGFGI:*<*:<HFDHAgg>HYFF:IGFGFHID:HDDX#",
"       X73GHUFDHUFGIGFGUFDAg-HYUG<*:*<:>::<FYGO#",
"       %56IGFHP:*<::>:>HDDgg>HIHIGFGIHDGFHDGFGXO",
"       X57GFPHGIGFUFGYGDFDAg:HYYDHDYDHGFUFUFPGO@",
"       $75FHDHIHFGFHIDFHIjhg>HYDHGIHDHIHDGFHFG@O",
"       X47*****%*****%**DDAg-YYYGIDGHPDHUFUHUGX#",
"       $7*%*%*%**%*%**%**%gg*HY%*****%**%**%*2@O",
"       X5%***%***%***%**%**A:H**%*%*%****%**%*%@",
"       X**%***%*%**%**1**%X.X.X**%2**%*%2****%2O",
"       $XXX$XXX$XXX$OXXXO+X..@..XXXXX$XXXXX$X@XX"
};
