/* XPM */
static char *fishymail[] = {
/* columns rows colors chars-per-pixel */
"32 32 7 1 ",
"  c None",
". c black",
"X c red",
"o c #808000",
"O c #808080",
"+ c #C0C0C0",
"@ c white",
/* pixels */
"       .....                    ",
"     ..+++OO..                  ",
"    .O@+++++OO..                ",
"    .@+@+@++++OO..              ",
"   .@@@@@+@+@+++OO..            ",
"   .@@@@@@@@+@++++OO..          ",
"  .@+@@@@@@@@+@+@+++OO..        ",
"  .+@+@+@@@@@@@@+@++++OO..      ",
"  .@+@+@+@+@@@@@@+@+@+..+O.     ",
"  .+++++@+@+@@@@@@@@+.O+O+O.    ",
"  .++..O+++@+@+@@@@@.O+O+O+.    ",
"  .++.X..O++@+@+@+@+.+O+..O+.   ",
"  .++.XX...O+++@+@+.+O+.OO.O.   ",
"  .++.XX.....O++@+@.O+O.++O..   ",
"  .++.XX.+O....O+@+.+O+O.@O..   ",
"  .++..X.+++O....O+.O+O+.@O..   ",
"  ..++O..+++++O..++.+O+O+..O.   ",
"    ..++++++++++O++.O+O+O+O+.   ",
"      ..+++++++++++.+O+O+O+O.   ",
"        ..+++++++++.O+O+O+O+.   ",
"         ...+++++++.+O+O+O+..   ",
"         .oo..+++++.O+O+O..     ",
"         .ooo...+++.+O+..       ",
"         .ooo..O..+.O..         ",
"         .ooo.O.O....           ",
"         .ooo..O..              ",
"         .ooo.O.O.              ",
"         .ooo..O..              ",
"         .ooo.O.O.              ",
"         .ooo..O..              ",
"           oo.O.O.              ",
"             ..O                "
};
